<?xml version="1.0" encoding="UTF-8" standalone="no"?>
<!-- Created with Inkscape (http://www.inkscape.org/) -->

<svg
   xmlns:i="http://ns.adobe.com/AdobeIllustrator/10.0/"
   xmlns:dc="http://purl.org/dc/elements/1.1/"
   xmlns:cc="http://creativecommons.org/ns#"
   xmlns:rdf="http://www.w3.org/1999/02/22-rdf-syntax-ns#"
   xmlns:svg="http://www.w3.org/2000/svg"
   xmlns="http://www.w3.org/2000/svg"
   xmlns:sodipodi="http://sodipodi.sourceforge.net/DTD/sodipodi-0.dtd"
   xmlns:inkscape="http://www.inkscape.org/namespaces/inkscape"
   width="96"
   height="96"
   id="svg1536"
   sodipodi:version="0.32"
   inkscape:version="0.48.5 r10040"
   inkscape:export-filename="/home/ghita/Work/Proiecte/gResistor2/icon.png"
   inkscape:export-xdpi="90.000000"
   inkscape:export-ydpi="90.000000"
   sodipodi:docname="icon.svg"
   version="1.1">
  <defs
     id="defs1538" />
  <sodipodi:namedview
     id="base"
     pagecolor="#ffffff"
     bordercolor="#666666"
     borderopacity="1.0"
     inkscape:pageopacity="0.0"
     inkscape:pageshadow="2"
     inkscape:zoom="5.6568542"
     inkscape:cx="98.534384"
     inkscape:cy="42.91335"
     inkscape:document-units="px"
     inkscape:current-layer="layer1"
     inkscape:window-width="1920"
     inkscape:window-height="1014"
     inkscape:window-x="0"
     inkscape:window-y="27"
     showgrid="false"
     inkscape:window-maximized="1" />
  <metadata
     id="metadata1541">
    <rdf:RDF>
      <cc:Work
         rdf:about="">
        <dc:format>image/svg+xml</dc:format>
        <dc:type
           rdf:resource="http://purl.org/dc/dcmitype/StillImage" />
        <dc:title></dc:title>
      </cc:Work>
    </rdf:RDF>
  </metadata>
  <g
     inkscape:label="Layer 1"
     inkscape:groupmode="layer"
     id="layer1"
     transform="translate(0,48)">
    <g
       id="g3000"
       transform="matrix(0,2.0188737,-2.0188737,0,97.566008,-48.449049)">
      <g
         transform="translate(0.00573,-2)"
         id="g2318">
        <path
           clip-rule="evenodd"
           d="m 0.81079801,16.562133 46.90117199,0 -0.290832,-1.289412 -46.906018,0 0.29567801,1.289412 z"
           i:knockout="Off"
           id="path27"
           style="fill:#808080;fill-rule:evenodd"
           inkscape:connector-curvature="0" />
        <path
           clip-rule="evenodd"
           d="m 31.362228,9.962383 c 0.45808,0 0.848297,-0.067863 1.238513,-0.135727 0.356285,-0.1017956 0.610774,-0.2035912 1.034922,-0.3732506 0.407183,-0.271455 0.831331,-0.6447056 1.408173,-0.8482968 0.559876,-0.2035912 1.153684,-0.3393187 1.849287,-0.271455 0.661672,0.08483 1.509968,0.1696594 2.154674,0.6447056 0.576842,0.3902165 1.153684,1.2385138 1.5439,1.8832188 0.356285,0.661672 0.356285,1.238513 0.71257,1.917151 0.305386,0.644705 0.559875,1.408173 1.153683,1.900185 0.559876,0.441114 1.289411,0.501631 2.25647,0.603427 l 0,1.267491 c -0.967059,0.08483 -1.696594,0.114096 -2.25647,0.572176 -0.593808,0.441115 -0.848297,1.204582 -1.153683,1.900185 -0.356285,0.661672 -0.356285,1.238514 -0.71257,1.917151 -0.390216,0.610774 -0.967058,1.408173 -1.5439,1.866253 -0.644706,0.407182 -1.493002,0.559876 -2.154674,0.661672 -0.695603,0.01696 -1.289411,-0.101796 -1.849287,-0.288421 -0.576842,-0.237523 -1.00099,-0.644706 -1.408173,-0.831331 -0.424148,-0.203591 -0.678637,-0.305387 -1.034922,-0.373251 -0.390216,-0.08483 -0.780433,-0.152693 -1.238513,-0.135727 l -15.354172,0 c -0.441114,-0.01697 -0.848297,0.0509 -1.221547,0.135727 -0.390217,0.06786 -0.678638,0.16966 -1.051888,0.373251 -0.407183,0.186625 -0.899195,0.593808 -1.408173,0.831331 -0.54291,0.186625 -1.221548,0.305386 -1.849287,0.288421 C 9.781557,23.365473 8.9332606,23.212779 8.3224869,22.805597 7.6777814,22.347517 7.1688033,21.550118 6.7955527,20.939344 6.3883702,20.260707 6.3883702,19.683865 6.0829834,19.022193 5.7606306,18.32659 5.4382778,17.563123 4.9123338,17.122008 4.335492,16.663928 3.6059567,16.642473 2.6558643,16.557644 l 0,-1.283115 C 3.6059567,15.172733 4.335492,15.120028 4.9123338,14.678914 5.4382778,14.186902 5.7606306,13.423434 6.0829834,12.778729 6.3883702,12.100091 6.3883702,11.52325 6.7955527,10.861578 7.1688033,10.216873 7.6777814,9.3685757 8.3224869,8.9783592 8.9332606,8.503313 9.781557,8.4184833 10.477161,8.3336536 c 0.627739,-0.067864 1.306377,0.067864 1.849287,0.271455 0.508978,0.2035912 1.00099,0.5768418 1.408173,0.8482968 0.37325,0.1696594 0.661671,0.271455 1.051888,0.3732506 0.37325,0.067864 0.780433,0.135727 1.221547,0.135727 l 15.354172,0 0,0 z"
           i:knockout="Off"
           id="path29"
           style="fill:#204f03;fill-opacity:1;fill-rule:evenodd"
           sodipodi:nodetypes="cccscccccccccccccssccsccccsscccccccssccccc"
           inkscape:connector-curvature="0" />
        <path
           clip-rule="evenodd"
           d="m 40.981914,11.98133 -34.6614075,0 c 0.033932,-0.237523 0.1696593,-0.492012 0.271455,-0.695604 0.033932,-0.254489 0.2205571,-0.475046 0.4241484,-0.661671 0.2375231,-0.220557 0.6277396,-0.54291 1.0349221,-0.576842 0.3562846,-0.050898 0.7634671,0.0509 1.1536836,0.237523 0.3562847,0.118762 0.4241484,0.508978 1.1876154,0.71257 0.729535,0.186625 2.103776,0.237523 3.274426,0.339318 1.136717,0.03393 0.746501,0.0509 3.681608,0.0509 2.952073,0 10.620676,-0.01697 13.844204,-0.0509 3.17263,-0.03393 3.834301,-0.135727 5.123712,-0.237523 1.17065,-0.152693 1.611764,-0.492012 2.17164,-0.559876 0.525944,-0.169659 0.780433,-0.220557 1.153684,-0.152693 0.305387,0.0509 0.661671,0.237523 0.882228,0.492012 0.186626,0.186625 0.237524,0.424148 0.339319,0.644706 0.08483,0.169659 0.101796,0.322352 0.118762,0.45808 z"
           i:knockout="Off"
           id="path31"
           style="fill:#8d5c25;fill-rule:evenodd"
           inkscape:connector-curvature="0" />
        <path
           clip-rule="evenodd"
           d="m 6.2356768,12.35458 34.8989302,0 0.424149,1.000991 -35.7641935,0 0.4411143,-1.000991 z"
           i:knockout="Off"
           id="path33"
           style="fill:#b0722e;fill-rule:evenodd"
           inkscape:connector-curvature="0" />
        <path
           clip-rule="evenodd"
           d="m 16.805455,9.945418 c -0.101796,1.730525 -0.118762,3.596778 -0.118762,5.598758 -0.01697,2.001981 0.03393,4.088791 0.152694,6.328295 l 1.679627,0 c -0.08483,-2.239504 -0.152693,-4.326314 -0.135727,-6.328295 0,-2.00198 0.01697,-3.868233 0.118762,-5.598758 l -1.696594,0 0,0 z"
           i:knockout="Off"
           id="path35"
           style="fill:#1d0e82;fill-rule:evenodd"
           inkscape:connector-curvature="0" />
        <path
           clip-rule="evenodd"
           d="m 19.418209,9.945418 c -0.101796,1.730525 -0.118761,3.596778 -0.118761,5.598758 -0.01697,2.001981 0.03393,4.088791 0.152693,6.328295 l 1.679628,0 c -0.08483,-2.239504 -0.152694,-4.326314 -0.135728,-6.328295 0,-2.00198 0.01697,-3.868233 0.118762,-5.598758 l -1.696594,0 0,0 z"
           i:knockout="Off"
           id="path37"
           style="fill:#fb0f0c;fill-rule:evenodd"
           inkscape:connector-curvature="0" />
        <path
           clip-rule="evenodd"
           d="m 21.810406,9.945418 c -0.101796,1.730525 -0.118762,3.596778 -0.118762,5.598758 -0.01696,2.001981 0.03393,4.088791 0.152694,6.328295 l 1.679628,0 c -0.08483,-2.239504 -0.152694,-4.326314 -0.135728,-6.328295 0,-2.00198 0.01697,-3.868233 0.118762,-5.598758 l -1.696594,0 0,0 z"
           i:knockout="Off"
           id="path39"
           style="fill:#fb0f0c;fill-rule:evenodd"
           inkscape:connector-curvature="0" />
        <path
           clip-rule="evenodd"
           d="m 30.717522,9.945418 c 0.08483,1.730525 0.101796,3.596778 0.118762,5.598758 -0.01697,2.001981 -0.06786,4.088791 -0.152693,6.328295 l -1.679628,0 c 0.06786,-2.239504 0.135727,-4.326314 0.135727,-6.328295 -0.01697,-2.00198 -0.03393,-3.868233 -0.118761,-5.598758 l 1.696593,0 0,0 z"
           i:knockout="Off"
           id="path41"
           style="fill:#fb0f0c;fill-rule:evenodd"
           inkscape:connector-curvature="0" />
        <path
           clip-rule="evenodd"
           d="m 28.189598,9.945418 c 0.08483,1.730525 0.101796,3.596778 0.118762,5.598758 -0.01697,2.001981 -0.06786,4.088791 -0.152694,6.328295 l -1.679628,0 c 0.06786,-2.239504 0.135728,-4.326314 0.135728,-6.328295 -0.01697,-2.00198 -0.03393,-3.868233 -0.118762,-5.598758 l 1.696594,0 0,0 z"
           i:knockout="Off"
           id="path43"
           style="fill:#f0a04a;fill-rule:evenodd"
           inkscape:connector-curvature="0" />
      </g>
      <path
         style="fill:#808080;fill-rule:evenodd"
         id="path2289"
         i:knockout="Off"
         d="m 0.81730903,35.169695 47.02539097,0 -0.291604,-1.289412 -47.030248,0 0.29646103,1.289412 z"
         clip-rule="evenodd"
         inkscape:connector-curvature="0" />
      <path
         sodipodi:nodetypes="cccscccccccccccccssccsccccsscccccccssccccc"
         style="fill:#7c0003;fill-opacity:1;fill-rule:evenodd"
         id="path2291"
         i:knockout="Off"
         d="m 31.367956,28.569945 c 0.458079,0 0.848297,-0.06786 1.238512,-0.135727 0.356285,-0.101796 0.610774,-0.203591 1.034922,-0.373251 0.407184,-0.271455 0.831331,-0.644705 1.408173,-0.848297 0.559877,-0.203591 1.153685,-0.339318 1.849288,-0.271455 0.661671,0.08483 1.509968,0.16966 2.154674,0.644706 0.576842,0.390216 1.153684,1.238514 1.5439,1.883219 0.356285,0.661672 0.356285,1.238513 0.71257,1.917151 0.305386,0.644705 0.559875,1.408173 1.153683,1.900185 0.559875,0.441114 1.289411,0.501631 2.25647,0.603427 l 0,1.267491 c -0.967059,0.08483 -1.696595,0.114096 -2.25647,0.572176 -0.593808,0.441115 -0.848297,1.204582 -1.153683,1.900185 -0.356285,0.661672 -0.356285,1.238514 -0.71257,1.917151 -0.390216,0.610774 -0.967058,1.408173 -1.5439,1.866253 -0.644706,0.407182 -1.493003,0.559876 -2.154674,0.661672 -0.695603,0.01696 -1.289411,-0.101796 -1.849288,-0.288421 -0.576842,-0.237523 -1.000989,-0.644706 -1.408173,-0.831331 -0.424148,-0.203591 -0.678637,-0.305387 -1.034922,-0.373251 -0.390215,-0.08483 -0.780433,-0.152693 -1.238512,-0.135727 l -15.354172,0 c -0.441115,-0.01697 -0.848297,0.0509 -1.221548,0.135727 -0.390217,0.06786 -0.678638,0.16966 -1.051888,0.373251 -0.407183,0.186625 -0.899195,0.593808 -1.408173,0.831331 -0.54291,0.186625 -1.221548,0.305386 -1.849287,0.288421 -0.6956035,-0.101796 -1.5438995,-0.25449 -2.1546735,-0.661672 -0.644706,-0.45808 -1.153684,-1.255479 -1.526934,-1.866253 -0.407183,-0.678637 -0.407183,-1.255479 -0.71257,-1.917151 -0.322352,-0.695603 -0.644705,-1.45907 -1.170649,-1.900185 -0.576842,-0.45808 -1.306377,-0.479535 -2.25647,-0.564364 l 0,-1.283115 c 0.950093,-0.101796 1.679628,-0.154501 2.25647,-0.595615 0.525944,-0.492012 0.848297,-1.25548 1.170649,-1.900185 0.305387,-0.678638 0.305387,-1.255479 0.71257,-1.917151 0.37325,-0.644705 0.882228,-1.493003 1.526934,-1.883219 0.610774,-0.475046 1.45907,-0.559876 2.1546735,-0.644706 0.627739,-0.06786 1.306377,0.06786 1.849287,0.271455 0.508978,0.203592 1.00099,0.576842 1.408173,0.848297 0.37325,0.16966 0.661671,0.271455 1.051888,0.373251 0.373251,0.06786 0.780433,0.135727 1.221548,0.135727 l 15.354172,0 0,0 z"
         clip-rule="evenodd"
         inkscape:connector-curvature="0" />
      <path
         style="fill:#8d5c25;fill-rule:evenodd"
         id="path2293"
         i:knockout="Off"
         d="m 40.987642,30.588892 -34.6614075,0 c 0.033931,-0.237523 0.169659,-0.492012 0.271455,-0.695604 0.033931,-0.254489 0.220557,-0.475046 0.424148,-0.661671 0.237523,-0.220557 0.62774,-0.54291 1.034922,-0.576842 0.356285,-0.0509 0.763467,0.0509 1.153684,0.237523 0.356284,0.118762 0.424148,0.508978 1.1876145,0.71257 0.729535,0.186625 2.103776,0.237523 3.274426,0.339318 1.136717,0.03393 0.746501,0.0509 3.681609,0.0509 2.952073,0 10.620675,-0.01697 13.844204,-0.0509 3.17263,-0.03393 3.834301,-0.135727 5.123712,-0.237523 1.17065,-0.152693 1.611764,-0.492012 2.171639,-0.559876 0.525945,-0.169659 0.780434,-0.220557 1.153685,-0.152693 0.305387,0.0509 0.661671,0.237523 0.882228,0.492012 0.186625,0.186625 0.237524,0.424148 0.339318,0.644706 0.08483,0.169659 0.101796,0.322352 0.118763,0.45808 z"
         clip-rule="evenodd"
         inkscape:connector-curvature="0" />
      <path
         style="fill:#b0722e;fill-rule:evenodd"
         id="path2295"
         i:knockout="Off"
         d="m 6.2414045,30.962142 34.8989305,0 0.424149,1.000991 -35.7641935,0 0.441114,-1.000991 z"
         clip-rule="evenodd"
         inkscape:connector-curvature="0" />
      <path
         style="fill:#1d0e82;fill-rule:evenodd"
         id="path2297"
         i:knockout="Off"
         d="m 16.811183,28.55298 c -0.101796,1.730525 -0.118762,3.596778 -0.118762,5.598758 -0.01697,2.001981 0.03393,4.088791 0.152694,6.328295 l 1.679627,0 c -0.08483,-2.239504 -0.152693,-4.326314 -0.135727,-6.328295 0,-2.00198 0.01697,-3.868233 0.118762,-5.598758 l -1.696594,0 0,0 z"
         clip-rule="evenodd"
         inkscape:connector-curvature="0" />
      <path
         style="fill:#fb0f0c;fill-rule:evenodd"
         id="path2299"
         i:knockout="Off"
         d="m 19.423936,28.55298 c -0.101796,1.730525 -0.11876,3.596778 -0.11876,5.598758 -0.01697,2.001981 0.03393,4.088791 0.152693,6.328295 l 1.679628,0 c -0.08483,-2.239504 -0.152694,-4.326314 -0.135728,-6.328295 0,-2.00198 0.01697,-3.868233 0.118762,-5.598758 l -1.696595,0 0,0 z"
         clip-rule="evenodd"
         inkscape:connector-curvature="0" />
      <path
         style="fill:#fb0f0c;fill-rule:evenodd"
         id="path2303"
         i:knockout="Off"
         d="m 30.72325,28.55298 c 0.08483,1.730525 0.101796,3.596778 0.118762,5.598758 -0.01697,2.001981 -0.06786,4.088791 -0.152693,6.328295 l -1.679628,0 c 0.06786,-2.239504 0.135727,-4.326314 0.135727,-6.328295 -0.01697,-2.00198 -0.03393,-3.868233 -0.118761,-5.598758 l 1.696593,0 0,0 z"
         clip-rule="evenodd"
         inkscape:connector-curvature="0" />
      <path
         style="fill:#f0a04a;fill-rule:evenodd"
         id="path2305"
         i:knockout="Off"
         d="m 28.195326,28.55298 c 0.08483,1.730525 0.101795,3.596778 0.118761,5.598758 -0.01697,2.001981 -0.06786,4.088791 -0.152693,6.328295 l -1.679628,0 c 0.06786,-2.239504 0.135728,-4.326314 0.135728,-6.328295 -0.01697,-2.00198 -0.03393,-3.868233 -0.118762,-5.598758 l 1.696594,0 0,0 z"
         clip-rule="evenodd"
         inkscape:connector-curvature="0" />
    </g>
  </g>
</svg>
